<svg xmlns="http://www.w3.org/2000/svg" width="900" height="620" viewBox="0 0 900 620" role="img" aria-labelledby="title desc">
  <title id="title">Contracts placeholder</title>
  <desc id="desc">A stylized contract document with legal notes for a newsletter template.</desc>
  <rect width="900" height="620" fill="#f8f3ea"/>
  <rect x="90" y="70" width="520" height="470" rx="26" fill="#fffdf8" stroke="#0d1f35" stroke-opacity="0.16" stroke-width="3"/>
  <rect x="150" y="130" width="250" height="22" rx="11" fill="#0d1f35"/>
  <rect x="150" y="190" width="390" height="14" rx="7" fill="#5f6674" opacity="0.42"/>
  <rect x="150" y="230" width="330" height="14" rx="7" fill="#5f6674" opacity="0.36"/>
  <rect x="150" y="270" width="360" height="14" rx="7" fill="#5f6674" opacity="0.36"/>
  <rect x="150" y="350" width="160" height="70" rx="14" fill="#efe4d2"/>
  <path d="M168 391c28-33 48-33 76 0 20 22 34 19 50-7" fill="none" stroke="#c99d52" stroke-width="8" stroke-linecap="round"/>
  <circle cx="665" cy="190" r="112" fill="#173655"/>
  <circle cx="665" cy="190" r="84" fill="#c99d52" opacity="0.9"/>
  <path d="M622 190h86M665 147v86" stroke="#fffdf8" stroke-width="18" stroke-linecap="round"/>
  <rect x="572" y="364" width="210" height="112" rx="24" fill="#0d1f35"/>
  <text x="677" y="430" text-anchor="middle" fill="#fffdf8" font-family="Arial, sans-serif" font-size="28" font-weight="700">PLACEHOLDER</text>
</svg>
