<svg xmlns="http://www.w3.org/2000/svg" width="900" height="620" viewBox="0 0 900 620" role="img" aria-labelledby="title desc">
  <title id="title">City legal update placeholder</title>
  <desc id="desc">A stylized North American city skyline for a legal newsletter template.</desc>
  <defs>
    <linearGradient id="sky" x1="0" x2="1" y1="0" y2="1">
      <stop offset="0%" stop-color="#173655"/>
      <stop offset="100%" stop-color="#0d1f35"/>
    </linearGradient>
  </defs>
  <rect width="900" height="620" fill="url(#sky)"/>
  <circle cx="730" cy="120" r="90" fill="#c99d52" opacity="0.78"/>
  <rect x="70" y="300" width="120" height="220" rx="8" fill="#fffdf8" opacity="0.9"/>
  <rect x="220" y="230" width="145" height="290" rx="8" fill="#efe4d2"/>
  <rect x="400" y="170" width="110" height="350" rx="8" fill="#fffdf8" opacity="0.92"/>
  <rect x="545" y="270" width="150" height="250" rx="8" fill="#efe4d2"/>
  <rect x="730" y="220" width="105" height="300" rx="8" fill="#fffdf8" opacity="0.86"/>
  <g fill="#0d1f35" opacity="0.45">
    <rect x="105" y="335" width="28" height="28" rx="4"/>
    <rect x="105" y="392" width="28" height="28" rx="4"/>
    <rect x="255" y="274" width="30" height="30" rx="4"/>
    <rect x="305" y="274" width="30" height="30" rx="4"/>
    <rect x="433" y="220" width="42" height="20" rx="4"/>
    <rect x="433" y="270" width="42" height="20" rx="4"/>
    <rect x="588" y="320" width="66" height="20" rx="4"/>
    <rect x="768" y="270" width="30" height="30" rx="4"/>
  </g>
  <rect x="0" y="520" width="900" height="100" fill="#c99d52"/>
  <text x="450" y="577" text-anchor="middle" fill="#0d1f35" font-family="Arial, sans-serif" font-size="28" font-weight="800" letter-spacing="4">NORTH AMERICA LEGAL MONTHLY</text>
</svg>
